<svg aria-hidden="true" style="position: absolute; width: 0; height: 0; overflow: hidden;" version="1.1" xmlns="http://www.w3.org/2000/svg" xmlns:xlink="http://www.w3.org/1999/xlink">
<path fill="#929496" d="M28.488 17.843c0-0.227 0-0.453 0-0.68-0.112 0-0.223 0-0.335 0 0 0.227 0 0.453 0.001 0.68 0.111 0 0.223 0 0.334 0z"/>
<path fill="#272525" d="M6.729 10.335c-0.007 0.001-0.009 0.002 0 0v0z"/>
<path fill="#272525" d="M19.354 15.289h-0.634c-0.102 0-0.185 0.083-0.185 0.185s0.083 0.185 0.185 0.185h0.634c0.102 0 0.185-0.083 0.185-0.185s-0.083-0.185-0.185-0.185z"/>
<path fill="#272525" d="M17.212 15.289h-0.634c-0.102 0-0.185 0.083-0.185 0.185s0.083 0.185 0.185 0.185h0.634c0.102 0 0.185-0.083 0.185-0.185s-0.083-0.185-0.185-0.185z"/>
<path fill="#272525" d="M9.373 19.274c-0.79-0.295-1.726-0.044-2.262 0.608-0.544 0.662-0.631 1.615-0.187 2.354 0.443 0.737 1.31 1.112 2.15 0.953 0.95-0.18 1.628-1.046 1.639-1.999-0.010-0.854-0.539-1.616-1.34-1.915zM9.212 22.671c-0.635 0.223-1.351 0.025-1.772-0.502-0.411-0.514-0.448-1.252-0.104-1.81 0.341-0.554 1.019-0.85 1.658-0.714 0.73 0.156 1.249 0.8 1.258 1.544-0.008 0.653-0.414 1.263-1.039 1.482z"/>
<path fill="#272525" d="M9.052 20.256c-0.364-0.139-0.795-0.023-1.044 0.275-0.253 0.302-0.294 0.741-0.095 1.082s0.596 0.516 0.983 0.45c0.44-0.076 0.745-0.463 0.769-0.898 0.001-0.009 0.002-0.018 0.001-0.027 0-0.012-0.001-0.023-0.002-0.033-0.022-0.38-0.252-0.711-0.613-0.849zM8.726 21.731c-0.324 0-0.593-0.269-0.593-0.593s0.269-0.593 0.593-0.593c0.33 0 0.585 0.27 0.593 0.593-0.009 0.324-0.263 0.593-0.593 0.593z"/>
<path fill="#272525" d="M22.816 19.274c-0.79-0.295-1.726-0.044-2.262 0.608-0.544 0.662-0.631 1.615-0.187 2.354 0.443 0.737 1.31 1.112 2.15 0.953 0.95-0.18 1.628-1.046 1.639-1.999-0.010-0.854-0.539-1.616-1.34-1.915zM22.654 22.671c-0.635 0.223-1.351 0.025-1.772-0.502-0.411-0.514-0.448-1.252-0.104-1.81 0.341-0.554 1.019-0.85 1.658-0.714 0.73 0.156 1.249 0.8 1.258 1.544-0.008 0.653-0.414 1.263-1.039 1.482z"/>
<path fill="#272525" d="M22.495 20.256c-0.364-0.139-0.795-0.023-1.044 0.275-0.253 0.302-0.294 0.741-0.095 1.082s0.596 0.516 0.983 0.45c0.44-0.076 0.745-0.463 0.769-0.898 0.001-0.009 0.002-0.018 0.001-0.027 0-0.012-0.001-0.023-0.002-0.033-0.023-0.38-0.252-0.711-0.613-0.849zM22.168 21.731c-0.324 0-0.593-0.269-0.593-0.593s0.269-0.593 0.593-0.593c0.33 0 0.585 0.27 0.593 0.593-0.009 0.324-0.263 0.593-0.593 0.593z"/>
<path fill="#272525" d="M28.565 17.009c-0.138 0-0.276 0-0.413 0-0.001-0.106-0.003-0.213-0.004-0.319 0.075 0.001 0.151-0.002 0.222-0.022 0.233-0.066 0.387-0.299 0.363-0.538-0.027-0.263-0.247-0.443-0.503-0.455-0.117 0-0.233 0-0.35 0-0.049-0.312-0.186-0.607-0.476-0.769-0.080-0.045-0.173-0.081-0.269-0.103-0.050-0.231-0.106-0.46-0.169-0.688-0.010-0.035-0.024-0.064-0.043-0.087-0.247-1.166-0.655-2.316-1.37-3.268-0.010-0.032-0.028-0.059-0.051-0.080-0.229-0.399-0.623-0.64-1.058-0.748 0.269-0.5-0.1-1.107-0.662-1.151-0.011-0.001-0.023-0.002-0.035-0.002-0.616 0-1.232 0-1.848 0-1.448 0-2.896 0-4.344 0-1.675 0-3.349 0-5.024 0-1.31 0-2.62 0-3.929 0-0.333 0-0.665 0-0.998 0-0.052 0-0.105-0.002-0.157 0-0.555 0.018-0.943 0.58-0.726 1.094-0.377 0.034-0.634 0.385-0.823 0.682-0.365 0.572-0.615 1.224-0.839 1.862-0.16 0.456-0.307 0.921-0.42 1.393-0.137 0.442-0.264 0.892-0.335 1.349-0.013 0.087-0.026 0.174-0.033 0.261-0.002 0.021-0.003 0.043-0.004 0.065 0.002-0.030 0.007-0.026 0.005-0.010-0.008 0.066-0.024 0.132-0.036 0.197-0.089 0.484-0.177 0.969-0.267 1.453-0.010 0.053-0.018 0.106-0.025 0.16-0.149 0-0.297 0-0.446 0-0.042 0-0.077 0.035-0.077 0.077 0 0.245 0 0.49 0 0.736 0 0.042 0.035 0.077 0.077 0.077 0.139 0 0.277 0 0.416 0 0.001 0.062 0.002 0.124 0.002 0.185h-0.652v0.51h0.649c0 0.4 0.029 0.796 0.237 1.158 0.231 0.402 0.622 0.704 1.067 0.834 0.303 0.088 0.617 0.071 0.929 0.071 0.093 0 0.207-0.071 0.223-0.17 0.143-0.853 0.741-1.575 1.569-1.845 0.843-0.275 1.791-0.063 2.422 0.565 0.35 0.349 0.569 0.793 0.65 1.28 0.017 0.099 0.129 0.17 0.223 0.17 0.944 0 1.889 0 2.833 0 1.511 0 3.022 0 4.533 0 0.345 0 0.69 0 1.036 0 0.093 0 0.207-0.071 0.224-0.17 0.143-0.853 0.741-1.575 1.569-1.845 0.843-0.275 1.791-0.063 2.422 0.565 0.35 0.349 0.569 0.793 0.65 1.28 0.017 0.099 0.129 0.17 0.224 0.17 0.332 0 0.663 0 0.995 0 0.38 0 0.787 0.035 1.154-0.077 0.614-0.188 1.116-0.707 1.243-1.343 0.041-0.208 0.047-0.426 0.045-0.642h0.445v-0.51h-0.452c-0-0.12-0-0.24-0-0.361 0.137 0 0.274 0 0.412 0 0.023 0 0.040-0.008 0.052-0.021 0.001-0.001 0.002-0.002 0.003-0.002s0.001-0.001 0.001-0.002c0.013-0.012 0.021-0.030 0.021-0.053 0-0.278 0-0.556 0-0.834 0-0.042-0.035-0.077-0.077-0.077zM3.914 18.019c-0.112 0-0.225 0-0.337 0 0-0.194 0-0.387 0-0.581 0.117 0 0.235 0 0.352 0-0.016 0.193-0.017 0.387-0.015 0.581zM26.997 15.248c0.011 0.002 0.018 0.003 0 0v0zM7.142 9.448c0.062-0.159 0.211-0.207 0.364-0.207 0.261-0.001 0.521 0 0.782 0 1.184 0 2.367 0 3.551 0 1.612 0 3.225 0 4.837 0 1.493 0 2.986 0 4.48 0 0.826 0 1.653 0 2.479 0 0.038 0 0.076 0 0.115 0 0.378 0.014 0.413 0.508 0.115 0.625-0.036 0.001-0.072 0.002-0.107 0.004-0.353 0-0.705 0-1.058 0-0.895 0-1.79 0-2.686 0-1.207 0-2.414 0-3.62 0-1.272 0-2.545 0-3.817 0-1.106 0-2.213 0-3.319 0-0.634 0-1.267 0-1.901 0-0.17-0.058-0.288-0.229-0.213-0.421zM27.47 18.359h-0.264v0.51h0.176c-0.096 0.248-0.26 0.464-0.503 0.618-0.355 0.225-0.734 0.208-1.134 0.208-0.326 0-0.651 0-0.977 0-0.215-0.926-0.913-1.691-1.818-1.996-0.978-0.329-2.092-0.059-2.82 0.669-0.309 0.309-0.54 0.69-0.674 1.104-0.025 0.073-0.047 0.148-0.066 0.223-0.87 0-1.739 0-2.609 0-1.476 0-2.952 0-4.427 0-0.276 0-0.552 0-0.828 0-0.215-0.926-0.913-1.691-1.818-1.996-0.978-0.329-2.092-0.059-2.82 0.669-0.309 0.309-0.54 0.69-0.674 1.104-0.025 0.074-0.048 0.15-0.067 0.226-0.138 0.003-0.279 0.005-0.413-0.016-0.328-0.050-0.63-0.226-0.837-0.485-0.084-0.105-0.143-0.215-0.185-0.328h0.15v-0.51h-0.245c-0.008-0.156-0.005-0.315-0.005-0.476 0-0.407-0.033-0.829 0.006-1.234 0.009-0.094 0.022-0.188 0.037-0.282 0.015-0.072 0.030-0.144 0.042-0.215 0.015-0.086 0.031-0.172 0.046-0.258 0.029-0.14 0.058-0.28 0.083-0.419 0.023-0.128 0.044-0.256 0.064-0.385 0.019-0.097 0.036-0.195 0.045-0.294 0.050-0.325 0.103-0.65 0.182-0.969 0.003-0.013 0.005-0.026 0.007-0.039 0.046-0.178 0.095-0.354 0.148-0.53 0.197-0.66 0.428-1.317 0.731-1.938 0.123-0.252 0.258-0.505 0.429-0.729 0-0 0.055-0.066 0.084-0.097 0.035-0.038 0.072-0.073 0.112-0.106 0.002-0.002 0.003-0.003 0.005-0.004 0.003-0.001 0.006-0.003 0.011-0.006 0.016-0.010 0.032-0.019 0.048-0.029 0.002-0.002 0.004-0.003 0.006-0.004s0.003-0.001 0.006-0.003c0.016-0.008 0.036-0.010 0.053-0.014-0.014 0.004-0.023 0.006-0.028 0.007 0.008-0.002 0.021-0.004 0.031-0.003 0.015 0.001 0.031 0 0.046 0 0.062-0 0.124 0 0.187 0 0.101 0 0.202 0 0.302 0 0.061 0.013 0.124 0.020 0.187 0.021 0.086 0.001 0.172 0 0.258 0 0.388 0 0.776 0 1.165 0 1.375 0 2.749 0 4.124 0 1.678 0 3.357 0 5.035 0 1.39 0 2.781 0 4.171 0 0.398 0 0.795 0 1.193 0 0.156 0 0.311 0.001 0.456-0.024 0.494-0.001 1.004 0.17 1.246 0.632 0.011 0.022 0.026 0.040 0.043 0.056 0.037 0.049 0.123 0.169 0.173 0.243 0.074 0.11 0.143 0.224 0.21 0.339 0.156 0.272 0.293 0.556 0.41 0.847 0.339 0.843 0.544 1.734 0.677 2.631 0.014 0.091 0.132 0.18 0.224 0.17 0.037-0.004 0.075-0.001 0.112 0 0.003 0 0.008 0.001 0.013 0.001 0.017 0.003 0.034 0.006 0.050 0.010 0.049 0.012 0.088 0.027 0.091 0.028 0.095 0.046 0.144 0.086 0.197 0.172 0.041 0.067 0.067 0.14 0.083 0.216-0.016 0-0.033 0-0.049 0-0.122 0-0.242-0.008-0.357 0.041-0.206 0.087-0.333 0.306-0.305 0.528 0.029 0.228 0.212 0.412 0.44 0.44 0.102 0.013 0.208 0.005 0.31 0.005 0.006 0 0.013 0 0.019 0 0.002 0.557 0.006 1.114 0.001 1.671zM28.488 17.844c-0.111 0-0.223 0-0.334 0-0-0.227-0-0.453-0.001-0.68 0.112 0 0.223 0 0.335 0 0 0.227 0 0.453 0 0.68z"/>
<path fill="#272525" d="M17.762 12.049c0-0.422-0.249-0.813-0.684-0.896-0.142-0.027-0.292-0.017-0.437-0.017-0.258 0-0.515 0-0.773 0-0.716 0-1.431 0-2.147 0-0.455 0-0.911-0.005-1.366 0-0.428 0.005-0.803 0.302-0.862 0.735-0.031 0.232-0.010 0.476-0.010 0.709 0 0.338 0 0.676 0 1.014 0 0.328 0.033 0.64 0.309 0.867 0.352 0.289 0.931 0.197 1.357 0.197 1.226 0 2.452 0 3.678 0 0.028 0 0.056 0 0.085 0 0.010 0 0.020-0.001 0.029-0.002 0.471-0.031 0.816-0.403 0.82-0.876 0.003-0.279 0-0.559 0-0.838 0-0.298 0-0.596 0-0.894zM17.297 13.851c-0.022 0.198-0.191 0.338-0.385 0.344-1.011 0-2.021 0-3.032 0-0.484 0-0.969 0-1.453 0-0.204 0-0.405-0.060-0.466-0.284-0.051-0.186-0.014-0.422-0.014-0.612 0-0.329 0-0.658 0-0.988 0-0.212-0.044-0.476 0.143-0.626 0.122-0.099 0.265-0.087 0.41-0.087 0.213 0 0.425 0 0.638 0 1.194 0 2.389 0 3.583 0 0.137 0 0.283-0.016 0.403 0.064 0.21 0.14 0.175 0.384 0.175 0.602 0 0.326 0 0.652 0 0.978-0 0.199 0.021 0.41-0.001 0.608z"/>
<path fill="#272525" d="M10.937 12.022c-0.003-0.322-0.151-0.62-0.439-0.78-0.174-0.097-0.359-0.107-0.55-0.107-0.477 0-0.954 0-1.431 0-0.404 0-0.808-0.005-1.212 0-0.319 0.004-0.625 0.166-0.774 0.457-0.1 0.196-0.097 0.396-0.097 0.607 0 0.493 0 0.987 0 1.48 0 0.252 0.038 0.486 0.21 0.686 0.178 0.207 0.43 0.293 0.696 0.294 0.889 0.004 1.777 0 2.666 0 0.027 0 0.055 0 0.082 0 0.010 0 0.020-0.001 0.029-0.002 0.421-0.027 0.769-0.336 0.815-0.765 0.016-0.151 0.006-0.308 0.006-0.459 0-0.47 0.004-0.94 0-1.411zM10.439 13.968c-0.063 0.14-0.202 0.222-0.352 0.227-0.783 0-1.566 0-2.348 0-0.297 0-0.782 0.079-0.839-0.334-0.017-0.123-0.003-0.255-0.003-0.379 0-0.246 0-0.492 0-0.738 0-0.213 0-0.425 0-0.637 0-0.173 0.014-0.337 0.175-0.444 0.11-0.073 0.233-0.064 0.358-0.064 0.183 0 0.366 0 0.549 0 0.502 0 1.004 0 1.506 0 0.168 0 0.336 0 0.503 0 0.151 0 0.295 0.014 0.399 0.143 0.102 0.126 0.087 0.277 0.087 0.428 0 0.227 0 0.454 0 0.682 0 0.237 0 0.475 0 0.712 0 0.128 0.020 0.285-0.034 0.405z"/>
<path fill="#272525" d="M25.283 12.856c-0.152-0.317-0.304-0.633-0.456-0.95-0.176-0.366-0.324-0.781-0.788-0.827-0.138-0.014-0.281-0.005-0.42-0.005-0.306 0-0.611 0-0.917 0-0.801 0-1.602 0-2.402 0-0.305 0-0.61 0-0.914 0-0.165 0-0.342-0.015-0.504 0.021-0.289 0.063-0.528 0.286-0.622 0.565-0.042 0.126-0.043 0.255-0.043 0.385 0 0.369 0 0.738 0 1.107 0 0.275-0.046 0.614 0.050 0.878 0.135 0.372 0.479 0.566 0.861 0.567 0.523 0.002 1.046 0 1.569 0 1.352 0 2.704 0 4.057 0 0.028 0 0.056 0 0.084 0 0.009 0 0.018-0 0.027-0.001 0.512-0.026 1.044-0.422 0.787-0.974-0.12-0.256-0.245-0.51-0.367-0.765zM24.836 14.133c-1.095 0-2.19 0-3.284 0-0.662 0-1.323 0-1.985 0-0.155 0-0.31 0.001-0.465 0-0.252-0.002-0.42-0.171-0.422-0.423-0.005-0.589-0.015-1.181 0-1.77 0.007-0.263 0.2-0.402 0.446-0.403 0.194-0.001 0.388 0 0.582 0 1.342 0 2.684 0 4.026 0 0.11 0 0.287-0.026 0.381 0.040 0.143 0.1 0.203 0.329 0.273 0.48 0.041 0.088 0.084 0.176 0.127 0.263 0.159 0.332 0.319 0.664 0.478 0.996 0.065 0.135 0.13 0.27 0.195 0.405 0.022 0.046 0.073 0.114 0.079 0.167 0.020 0.172-0.311 0.242-0.429 0.245z"/>
<path fill="#272525" d="M25.796 12.717c-0.193-0.403-0.387-0.805-0.58-1.208-0.17-0.353-0.296-0.787-0.756-0.799-0.206-0.005-0.412 0-0.618 0-0.93 0-1.86 0-2.791 0-0.557 0-1.113 0.002-1.67 0.002-0.418 0-0.996-0.108-1.291 0.264-0.037 0.047-0.065 0.095-0.086 0.144-0.122-0.205-0.347-0.338-0.6-0.346-0.868-0.026-1.741 0-2.609 0-0.976 0-1.952-0.004-2.928 0-0.317 0.001-0.562 0.162-0.677 0.414-0.053-0.102-0.129-0.191-0.24-0.257-0.208-0.125-0.462-0.095-0.695-0.095-0.381 0-0.762 0-1.142 0-0.675 0-1.354-0.020-2.029 0-0.399 0.012-0.826 0.41-0.934 0.783-0.051 0.178-0.021 0.395-0.021 0.577 0 0.827 0 1.653 0 2.48 0 0.27-0.001 0.54 0 0.81 0.001 0.422 0.184 0.81 0.55 1.038 0.269 0.167 0.551 0.184 0.858 0.157 0.361-0.032 0.727-0.012 1.082 0.062 0.661 0.138 1.276 0.459 1.771 0.919 0.249 0.232 0.463 0.495 0.644 0.783 0.008 0.012 0.017 0.021 0.027 0.027s0.024 0.011 0.039 0.012c0.023 0.001 0.043-0.007 0.061-0.021 0.061 0.056 0.162 0.111 0.326 0.135 0.249 0.127 0.574 0.085 0.844 0.085 0.541 0 1.082 0 1.622 0 1.084 0 2.168 0 3.252 0 0.067 0 0.134 0 0.201 0 0.283-0.010 0.518-0.171 0.628-0.409 0.027 0.050 0.062 0.098 0.108 0.143 0.174 0.174 0.39 0.204 0.622 0.204 0.21 0 0.424 0.014 0.633 0 0.102-0.007 0.118-0.067 0.174-0.153 0.111-0.17 0.239-0.328 0.381-0.472 0.27-0.273 0.59-0.493 0.942-0.647 0.358-0.156 0.744-0.236 1.134-0.248 0.002-0 0.005-0.001 0.007-0.001 0.534 0 1.068 0 1.601 0 0.32 0 0.641 0 0.961 0 0.248 0 0.497 0.015 0.733-0.079 0.513-0.206 0.784-0.734 0.72-1.267 0.008-0.011 0.013-0.026 0.013-0.044 0-0.727-0.024-1.457 0-2.183 0.005-0.135 0.002-0.243-0.058-0.37-0.069-0.147-0.141-0.293-0.211-0.439zM11.092 18.252c-0.68-1.004-1.788-1.665-3.009-1.734-0.182-0.010-0.365-0.008-0.546 0.008-0.173 0.015-0.333 0.030-0.504-0.016-0.292-0.078-0.541-0.287-0.664-0.564-0.103-0.231-0.085-0.481-0.085-0.727 0-0.774 0-1.548 0-2.321 0-0.316 0-0.632 0-0.949 0-0.061-0.003-0.124 0-0.185 0.011-0.221 0.182-0.417 0.342-0.555 0.131-0.114 0.286-0.212 0.464-0.218 0.082-0.003 0.164 0 0.246 0 0.348 0 0.696 0 1.043 0 0.712 0 1.424 0 2.136 0 0.102 0 0.199 0.001 0.297 0.043 0.174 0.076 0.28 0.229 0.313 0.406-0.003 0.030-0.005 0.060-0.005 0.091-0.001 0.333 0 0.666 0 0.998 0 1.225 0 2.451 0 3.676 0 0.472 0 0.945 0 1.417 0 0.149-0.006 0.299 0.014 0.441-0.005 0.066-0.018 0.129-0.041 0.189zM17.407 18.527c-0.789 0-1.577 0-2.366 0-1.020 0-2.040 0-3.061 0-0.095 0-0.197 0.008-0.289-0.015-0.225-0.054-0.364-0.23-0.404-0.44 0.036-0.352 0.003-0.817 0.003-0.902 0-0.819 0-1.638 0-2.458 0-0.803 0-1.607 0-2.41 0-0.26 0.038-0.588-0.018-0.871 0.005-0.036 0.012-0.071 0.021-0.105 0.125-0.452 0.586-0.398 0.947-0.398 0.496 0 0.993 0 1.49 0 1.101 0 2.201 0 3.302 0 0.114 0 0.227-0.001 0.341 0 0.294 0.002 0.531 0.192 0.57 0.481-0.005 0.076-0.004 0.153-0.004 0.231 0 1.718 0 3.435 0 5.153 0 0.307 0 0.614 0 0.921 0 0.085 0.001 0.168 0.009 0.249-0.006 0.308-0.226 0.551-0.541 0.562zM25.913 13.453c-0.021 0.26-0.003 0.529-0.003 0.79 0 0.41 0 0.82 0 1.23 0 0.062 0 0.124 0 0.185-0.015 0.019-0.022 0.046-0.017 0.071 0.094 0.543-0.243 1.092-0.796 1.2-0.178 0.035-0.384 0.015-0.566 0.015-0.649 0-1.298 0-1.947 0-0.185 0-0.37 0-0.555 0-0.005 0-0.009 0.001-0.014 0.001-1.075 0.036-2.057 0.605-2.624 1.519-0.149 0-0.299 0-0.449 0-0.192 0-0.409 0.027-0.581-0.074-0.181-0.106-0.24-0.262-0.259-0.435 0.001-0.058-0-0.115-0-0.173 0-0.418 0-0.836 0-1.254 0-1.231 0-2.462 0-3.693 0-0.401 0-0.801 0-1.202 0-0.075 0.004-0.152-0.004-0.227-0-0.002-0.001-0.004-0.001-0.006 0.032-0.318 0.252-0.532 0.596-0.533 0.294-0.001 0.589 0.003 0.883-0.002 0.559-0.011 1.119 0 1.678 0 0.848 0 1.696 0 2.544 0 0.211 0 0.422-0.002 0.633 0 0.383 0.003 0.477 0.361 0.617 0.654 0.165 0.343 0.33 0.687 0.495 1.030 0.084 0.175 0.169 0.351 0.253 0.526 0.061 0.127 0.128 0.233 0.116 0.378z"/>
</svg>